# xmcd
#
# Track frame offsets:
# 150
# 15772
# 34735
# 50274
# 69185
# 82105
# 100548
# 112894
# 128479
# 137599
# 152595
# 165093
# 184796
# 202818
# 218152
# 230398
# 248782
# 260360
# 275859
# 288245
#
# Disc length: 4051 seconds
#
#
# Revision: 0
# Processed by: cddbd v1.5.2PL0 Copyright (c) Steve Scherf et al.
# Submitted via: FreeRIP 2.40 
#
DISCID=f80fd114
DTITLE=鄧麗君 - 甜蜜蜜甜歌集 DISC 1
DYEAR=1900
DGENRE=Classic Rock
TTITLE0=甜蜜蜜
TTITLE1=我只在乎你
TTITLE2=月亮代表我的心
TTITLE3=酒醉的探戈
TTITLE4=又見炊煙
TTITLE5=但願人長久
TTITLE6=獨上西樓
TTITLE7=再見! 我的愛人
TTITLE8=路邊的野花你不要採
TTITLE9=難忘的初戀情人
TTITLE10=美酒加咖啡
TTITLE11=恰似你的溫柔
TTITLE12=愛的箴言
TTITLE13=你怎麼說
TTITLE14=人約黃昏後
TTITLE15=何日君再來
TTITLE16=小城故事
TTITLE17=一封情書
TTITLE18=南海姑娘
TTITLE19=千言萬語
EXTD=
EXTT0=
EXTT1=
EXTT2=
EXTT3=
EXTT4=
EXTT5=
EXTT6=
EXTT7=
EXTT8=
EXTT9=
EXTT10=
EXTT11=
EXTT12=
EXTT13=
EXTT14=
EXTT15=
EXTT16=
EXTT17=
EXTT18=
EXTT19=
PLAYORDER=
